<svg width="32" height="32" viewBox="0 0 58 58" xmlns="http://www.w3.org/2000/svg"><defs><linearGradient x1="12.811%" y1="43.597%" x2="94.4%" y2="57.648%" id="a"><stop stop-color="#FF9E16" stop-opacity="0" offset="0%"/><stop stop-color="#FD9516" stop-opacity=".07" offset="4%"/><stop stop-color="#F67717" stop-opacity=".31" offset="17%"/><stop stop-color="#F05E18" stop-opacity=".52" offset="30%"/><stop stop-color="#EB4819" stop-opacity=".7" offset="43%"/><stop stop-color="#E73819" stop-opacity=".83" offset="57%"/><stop stop-color="#E42C1A" stop-opacity=".92" offset="69%"/><stop stop-color="#E3251A" stop-opacity=".98" offset="82%"/><stop stop-color="#E2231A" offset="93%"/></linearGradient></defs><g fill="none"><path d="M5 44.333v-8.9c7.516-.009 13.606-5.996 13.614-13.384V9.667h9.053v12.382c0 12.286-10.168 22.284-22.667 22.284z" fill="#FF9E16"/><path d="M0 39.333v-8.9c7.516-.009 13.606-5.996 13.614-13.384V4.667h9.053v12.382c0 12.286-10.168 22.284-22.667 22.284z" fill="url(#a)" transform="translate(5 5)"/><path d="M52.657 6.78c.225.24.348.558.343.888A1.328 1.328 0 0 1 51.667 9a1.277 1.277 0 0 1-.942-.391 1.309 1.309 0 0 1-.391-.965c0-.372.162-.726.444-.97.24-.225.56-.347.889-.34.38-.006.742.158.99.445v.001zm-1.763.191a1.044 1.044 0 0 0-.272.71c.008.292.133.568.348.765a1.046 1.046 0 0 0 1.742-.778 1.014 1.014 0 0 0-.356-.775 1.001 1.001 0 0 0-.71-.268.973.973 0 0 0-.75.346h-.002zm1.198.432c-.162-.178-.24-.217-.391-.217a.44.44 0 0 0-.331.139.469.469 0 0 0-.132.339.46.46 0 0 0 .136.341.44.44 0 0 0 .327.139.388.388 0 0 0 .177-.038c.078-.05.15-.11.214-.177l.245.218a1.493 1.493 0 0 1-.05.048.797.797 0 0 1-.583.25.761.761 0 0 1-.592-.26.753.753 0 0 1-.202-.533.788.788 0 0 1 .794-.79c.24.01.463.122.615.306l-.227.235z" fill="#FF5000"/><path d="M44.479 52.993a4.518 4.518 0 0 1-3.977-2.36L18.88 11.653A4.494 4.494 0 0 1 19 7.15a4.525 4.525 0 0 1 3.977-2.148 4.523 4.523 0 0 1 3.853 2.357l21.622 38.987a4.492 4.492 0 0 1-.086 4.45A4.522 4.522 0 0 1 44.484 53l-.005-.007z" fill="#98252B"/><path d="M44.667 53c-2.394 0-4.334-2.016-4.334-4.503V9.503c0-2.487 1.94-4.503 4.334-4.503C47.06 5 49 7.016 49 9.503v38.994C49 50.984 47.06 53 44.667 53z" fill="#FF5000"/></g></svg>