<svg xmlns="http://www.w3.org/2000/svg" width="14" height="14" fill="none" viewBox="0 0 15 15"><path fill="#3483FA" d="M6.91.93a1 1 0 0 1 1.18 0l.984.718a1 1 0 0 0 .592.193l1.219-.003a1 1 0 0 1 .954.693l.374 1.16a1 1 0 0 0 .366.503l.987.715a1 1 0 0 1 .365 1.121l-.38 1.16a1 1 0 0 0 0 .62l.38 1.16a1 1 0 0 1-.365 1.12l-.987.716a1 1 0 0 0-.366.503l-.374 1.16a1 1 0 0 1-.954.693l-1.22-.003a1 1 0 0 0-.59.192l-.986.72a1 1 0 0 1-1.178 0l-.985-.72a1 1 0 0 0-.592-.192l-1.219.003a1 1 0 0 1-.954-.693l-.374-1.16a1 1 0 0 0-.366-.503l-.987-.715a1 1 0 0 1-.365-1.121l.38-1.16a1 1 0 0 0 0-.62l-.38-1.16a1 1 0 0 1 .365-1.12l.987-.716a1 1 0 0 0 .366-.503l.374-1.16a1 1 0 0 1 .954-.693l1.22.003a1 1 0 0 0 .59-.193z"/><path fill="#fff" d="m6.59 8.547 3.433-3.433.772.772-4.204 4.203-2.386-2.385.771-.772z"/></svg>